<svg width="226" height="27" viewBox="0 0 226 27" fill="none" xmlns="http://www.w3.org/2000/svg">
<path d="M1.97826 0.5C3.07082 0.5 3.95652 1.01168 3.95652 1.64285V21.5245C3.95652 21.9615 4.64184 23.0714 5.36956 23.0714H12.1522C12.8799 23.0714 13.5652 21.9615 13.5652 21.5245V1.64285C13.5652 1.01168 14.4509 0.5 15.5435 0.5C16.636 0.5 17.5217 1.01168 17.5217 1.64285V21.5245C17.5217 24.3741 15.1408 26.5 12.4348 26.5H5.08696C2.38091 26.5 0 24.3741 0 21.5245V1.64285C0 1.01168 0.885705 0.5 1.97826 0.5Z" fill="url(#paint0_linear_5_9)"/>
<path d="M29.1087 24.7067V3.63264H36.0326C36.9691 3.63264 38.1522 4.9672 38.1522 5.91089V10.0403C38.1522 10.984 36.9691 12.1762 36.0326 12.1762H31.7935C31.0911 12.1762 30.5217 12.9412 30.5217 13.8849C30.5217 14.8286 31.0911 15.5936 31.7935 15.5936H34.3369L40.4295 25.7605L40.4308 25.7627C40.9268 26.5631 42.0802 26.7392 43.0069 26.156C43.9336 25.5728 44.2827 24.4512 43.7866 23.6507L43.7844 23.6471L38.5956 15.3139C40.6567 14.4641 41.8261 12.4231 41.8261 10.0403V5.91089C41.8261 2.76528 39.5781 0.5 36.4565 0.5H27.9783C26.1053 0.5 25.1522 1.35435 25.1522 2.77829V24.7067C25.1522 25.6504 26.0379 26.4154 27.1304 26.4154C28.223 26.4154 29.1087 25.6504 29.1087 24.7067Z" fill="url(#paint1_linear_5_9)"/>
<path d="M163.065 3.63264V24.7067C163.065 25.6504 162.179 26.4154 161.087 26.4154C159.994 26.4154 159.109 25.6504 159.109 24.7067V2.77829C159.109 1.35435 160.062 0.5 161.935 0.5H170.413C173.535 0.5 175.783 2.76528 175.783 5.91089V10.0403C175.783 12.4231 174.613 14.4641 172.552 15.3139L177.741 23.6471L177.743 23.6507C178.239 24.4512 177.89 25.5728 176.963 26.156C176.037 26.7392 174.883 26.5631 174.387 25.7627L174.386 25.7605L168.293 15.5936H165.75C165.048 15.5936 164.478 14.8286 164.478 13.8849C164.478 12.9412 165.048 12.1762 165.75 12.1762H169.989C170.926 12.1762 172.109 10.984 172.109 10.0403V5.91089C172.109 4.9672 170.926 3.63264 169.989 3.63264H163.065Z" fill="url(#paint2_linear_5_9)"/>
<path d="M50.0217 6.37096C50.0217 3.12852 52.6788 0.5 55.9565 0.5H61.6087C64.8864 0.5 67.5435 3.12852 67.5435 6.37096V8.0484C67.5435 8.74319 66.6578 9.30644 65.5652 9.30644C64.4726 9.30644 63.5869 8.74319 63.5869 8.0484V6.37096C63.5869 5.29017 62.7012 4.41398 61.6087 4.41398H55.9565C54.8639 4.41398 53.9782 5.29017 53.9782 6.37096V9.16665C53.9782 10.2475 54.8639 11.1237 55.9565 11.1237H61.6087C64.8864 11.1237 67.5435 13.7522 67.5435 16.9946V20.629C67.5435 23.8715 64.8864 26.5 61.6087 26.5H55.9565C52.6788 26.5 50.0217 23.8715 50.0217 20.629V18.672C50.0217 17.9772 50.9074 17.414 52 17.414C53.0926 17.414 53.9782 17.9772 53.9782 18.672V20.629C53.9782 21.7098 54.8639 22.586 55.9565 22.586H61.6087C62.7012 22.586 63.5869 21.7098 63.5869 20.629V16.9946C63.5869 15.9138 62.7012 15.0376 61.6087 15.0376H55.9565C52.6788 15.0376 50.0217 12.4091 50.0217 9.16665V6.37096Z" fill="url(#paint3_linear_5_9)"/>
<path d="M213.935 0.5C210.657 0.5 208 3.12852 208 6.37096V9.16665C208 12.4091 210.657 15.0376 213.935 15.0376H219.587C220.679 15.0376 221.565 15.9138 221.565 16.9946V20.629C221.565 21.7098 220.679 22.586 219.587 22.586H213.935C212.842 22.586 211.956 21.7098 211.956 20.629V18.672C211.956 17.9772 211.071 17.414 209.978 17.414C208.886 17.414 208 17.9772 208 18.672V20.629C208 23.8715 210.657 26.5 213.935 26.5H219.587C222.865 26.5 225.522 23.8715 225.522 20.629V16.9946C225.522 13.7522 222.865 11.1237 219.587 11.1237H213.935C212.842 11.1237 211.956 10.2475 211.956 9.16665V6.37096C211.956 5.29017 212.842 4.41398 213.935 4.41398H219.587C220.679 4.41398 221.565 5.29017 221.565 6.37096V8.0484C221.565 8.74319 222.451 9.30644 223.543 9.30644C224.636 9.30644 225.522 8.74319 225.522 8.0484V6.37096C225.522 3.12852 222.865 0.5 219.587 0.5H213.935Z" fill="url(#paint4_linear_5_9)"/>
<path d="M93.8188 25.8022C92.8007 26.188 91.6624 25.678 91.2726 24.6615L84.1173 6.00249L77.2867 24.6243C76.9118 25.6465 75.7807 26.1731 74.7571 25.802C73.7279 25.429 73.1978 24.2905 73.5748 23.2627L81.179 2.5317C82.165 -0.156292 85.9792 -0.183891 87.0044 2.48954L94.964 23.246C95.356 24.2682 94.8425 25.4143 93.8188 25.8022Z" fill="url(#paint5_linear_5_9)"/>
<path d="M84.288 20.6021C85.6147 20.6021 86.6902 19.5329 86.6902 18.214C86.6902 16.8952 85.6147 15.826 84.288 15.826C82.9613 15.826 81.8858 16.8952 81.8858 18.214C81.8858 19.5329 82.9613 20.6021 84.288 20.6021Z" fill="url(#paint6_linear_5_9)"/>
<path d="M127.585 3.42696L121.875 24.7937C121.276 27.0332 118.077 27.0183 117.5 24.7735L113.524 9.317L109.155 24.8565C108.533 27.0687 105.37 27.0399 104.789 24.8167L99.1955 3.41937C98.9188 2.36083 99.5541 1.27876 100.613 1.0046C101.669 0.731413 102.746 1.36411 103.022 2.41899L107.037 17.7762L111.419 2.18961C112.043 -0.0270968 115.213 0.00795326 115.787 2.23788L119.721 17.5329L123.764 2.40585C124.045 1.35252 125.126 0.725687 126.18 1.00457C127.238 1.28442 127.867 2.36994 127.585 3.42696Z" fill="url(#paint7_linear_5_9)"/>
<path fill-rule="evenodd" clip-rule="evenodd" d="M133.956 5.58696C133.956 2.7775 136.234 0.5 139.043 0.5H146.109C148.918 0.5 151.196 2.7775 151.196 5.58696V21.413C151.196 24.2225 148.918 26.5 146.109 26.5H139.043C136.234 26.5 133.956 24.2225 133.956 21.413V5.58696ZM138.196 5.62421C138.196 4.68773 138.955 3.92856 139.891 3.92856H145.261C146.197 3.92856 146.956 4.68773 146.956 5.62421V21.0901C146.956 22.0266 146.197 22.7857 145.261 22.7857H139.891C138.955 22.7857 138.196 22.0266 138.196 21.0901V5.62421Z" fill="url(#paint8_linear_5_9)"/>
<path d="M197.309 1.94499C198.028 1.14394 199.258 1.06963 200.068 1.77819C200.893 2.49986 200.969 3.7568 200.237 4.57261L187.793 18.4361V24.5045C187.793 25.597 186.908 26.4827 185.815 26.4827C184.723 26.4827 183.837 25.597 183.837 24.5045V3.07577C183.837 1.98321 184.723 1.09751 185.815 1.09751C186.908 1.09751 187.793 1.98321 187.793 3.07577V12.5469L197.309 1.94499Z" fill="url(#paint9_linear_5_9)"/>
<path d="M193.001 16.9584C192.359 16.0687 192.568 14.8258 193.465 14.1947C194.347 13.5743 195.564 13.7786 196.195 14.6529L201.944 22.6171C202.586 23.5067 202.378 24.7496 201.48 25.3808C200.598 26.0012 199.381 25.7969 198.75 24.9225L193.001 16.9584Z" fill="url(#paint10_linear_5_9)"/>
<defs>
<linearGradient id="paint0_linear_5_9" x1="0" y1="26.5" x2="225.333" y2="0.5" gradientUnits="userSpaceOnUse">
<stop stop-color="#E87ABA"/>
<stop offset="0.346737" stop-color="#C871C7"/>
<stop offset="1" stop-color="#605DDC"/>
</linearGradient>
<linearGradient id="paint1_linear_5_9" x1="0" y1="26.5" x2="225.333" y2="0.5" gradientUnits="userSpaceOnUse">
<stop stop-color="#E87ABA"/>
<stop offset="0.346737" stop-color="#C871C7"/>
<stop offset="1" stop-color="#605DDC"/>
</linearGradient>
<linearGradient id="paint2_linear_5_9" x1="0" y1="26.5" x2="225.333" y2="0.5" gradientUnits="userSpaceOnUse">
<stop stop-color="#E87ABA"/>
<stop offset="0.346737" stop-color="#C871C7"/>
<stop offset="1" stop-color="#605DDC"/>
</linearGradient>
<linearGradient id="paint3_linear_5_9" x1="0" y1="26.5" x2="225.333" y2="0.5" gradientUnits="userSpaceOnUse">
<stop stop-color="#E87ABA"/>
<stop offset="0.346737" stop-color="#C871C7"/>
<stop offset="1" stop-color="#605DDC"/>
</linearGradient>
<linearGradient id="paint4_linear_5_9" x1="0" y1="26.5" x2="225.333" y2="0.5" gradientUnits="userSpaceOnUse">
<stop stop-color="#E87ABA"/>
<stop offset="0.346737" stop-color="#C871C7"/>
<stop offset="1" stop-color="#605DDC"/>
</linearGradient>
<linearGradient id="paint5_linear_5_9" x1="0" y1="26.5" x2="225.333" y2="0.5" gradientUnits="userSpaceOnUse">
<stop stop-color="#E87ABA"/>
<stop offset="0.346737" stop-color="#C871C7"/>
<stop offset="1" stop-color="#605DDC"/>
</linearGradient>
<linearGradient id="paint6_linear_5_9" x1="0" y1="26.5" x2="225.333" y2="0.5" gradientUnits="userSpaceOnUse">
<stop stop-color="#E87ABA"/>
<stop offset="0.346737" stop-color="#C871C7"/>
<stop offset="1" stop-color="#605DDC"/>
</linearGradient>
<linearGradient id="paint7_linear_5_9" x1="0" y1="26.5" x2="225.333" y2="0.5" gradientUnits="userSpaceOnUse">
<stop stop-color="#E87ABA"/>
<stop offset="0.346737" stop-color="#C871C7"/>
<stop offset="1" stop-color="#605DDC"/>
</linearGradient>
<linearGradient id="paint8_linear_5_9" x1="0" y1="26.5" x2="225.333" y2="0.5" gradientUnits="userSpaceOnUse">
<stop stop-color="#E87ABA"/>
<stop offset="0.346737" stop-color="#C871C7"/>
<stop offset="1" stop-color="#605DDC"/>
</linearGradient>
<linearGradient id="paint9_linear_5_9" x1="0" y1="26.5" x2="225.333" y2="0.5" gradientUnits="userSpaceOnUse">
<stop stop-color="#E87ABA"/>
<stop offset="0.346737" stop-color="#C871C7"/>
<stop offset="1" stop-color="#605DDC"/>
</linearGradient>
<linearGradient id="paint10_linear_5_9" x1="0" y1="26.5" x2="225.333" y2="0.5" gradientUnits="userSpaceOnUse">
<stop stop-color="#E87ABA"/>
<stop offset="0.346737" stop-color="#C871C7"/>
<stop offset="1" stop-color="#605DDC"/>
</linearGradient>
</defs>
</svg>
