<svg width="16" height="17" viewBox="0 0 16 17" fill="none" xmlns="http://www.w3.org/2000/svg">
<path d="M7.99999 8.49992C8.36666 8.49992 8.68054 8.36936 8.94166 8.10825C9.20277 7.84714 9.33332 7.53325 9.33332 7.16659C9.33332 6.79992 9.20277 6.48603 8.94166 6.22492C8.68054 5.96381 8.36666 5.83325 7.99999 5.83325C7.63332 5.83325 7.31943 5.96381 7.05832 6.22492C6.79721 6.48603 6.66666 6.79992 6.66666 7.16659C6.66666 7.53325 6.79721 7.84714 7.05832 8.10825C7.31943 8.36936 7.63332 8.49992 7.99999 8.49992ZM7.99999 13.3999C9.35555 12.1555 10.3611 11.0249 11.0167 10.0083C11.6722 8.99159 12 8.08881 12 7.29992C12 6.08881 11.6139 5.09714 10.8417 4.32492C10.0694 3.5527 9.12221 3.16659 7.99999 3.16659C6.87777 3.16659 5.93055 3.5527 5.15832 4.32492C4.3861 5.09714 3.99999 6.08881 3.99999 7.29992C3.99999 8.08881 4.32777 8.99159 4.98332 10.0083C5.63888 11.0249 6.64443 12.1555 7.99999 13.3999ZM7.99999 15.1666C6.2111 13.6444 4.87499 12.2305 3.99166 10.9249C3.10832 9.61936 2.66666 8.41103 2.66666 7.29992C2.66666 5.63325 3.20277 4.30547 4.27499 3.31659C5.34721 2.3277 6.58888 1.83325 7.99999 1.83325C9.4111 1.83325 10.6528 2.3277 11.725 3.31659C12.7972 4.30547 13.3333 5.63325 13.3333 7.29992C13.3333 8.41103 12.8917 9.61936 12.0083 10.9249C11.125 12.2305 9.78888 13.6444 7.99999 15.1666Z" fill="white"/>
</svg>
