<svg width="468" height="257" viewBox="0 0 468 257" fill="none" xmlns="http://www.w3.org/2000/svg">
<path d="M282.761 27.5271L284.841 36.0175L279.57 42.7822L288.421 43.3072L292.828 50.4229L295.885 42.4257L304.478 40.0615L297.533 33.9602L298.154 25.7673L290.663 30.3745L282.761 27.5271Z" fill="white" fill-opacity="0.08"/>
<path d="M395.326 11.0884L393.247 2.59793L401.148 5.44538L408.639 0.838146L408.018 9.03105L414.963 15.1323L406.37 17.4966L403.313 25.4937L398.907 18.3781L390.056 17.8531L395.326 11.0884Z" fill="white" fill-opacity="0.08"/>
<path d="M435.668 96.6635L432.296 82.9003L445.105 87.516L457.248 80.0476L456.241 93.3285L467.499 103.219L453.57 107.051L448.615 120.015L441.471 108.48L427.124 107.629L435.668 96.6635Z" fill="white" fill-opacity="0.08"/>
<path d="M261.804 125.555L259.725 117.064L267.626 119.912L275.117 115.305L274.496 123.498L281.441 129.599L272.848 131.963L269.791 139.96L265.385 132.845L256.534 132.32L261.804 125.555Z" fill="white" fill-opacity="0.08"/>
<path d="M192.333 157.684L194.413 166.174L189.142 172.939L197.993 173.464L202.4 180.58L205.457 172.583L214.05 170.218L207.105 164.117L207.726 155.924L200.235 160.531L192.333 157.684Z" fill="white" fill-opacity="0.08"/>
<path d="M125.415 228.632L121.979 214.606L135.032 219.31L147.407 211.699L146.381 225.233L157.853 235.312L143.658 239.218L138.609 252.428L131.329 240.674L116.708 239.807L125.415 228.632Z" fill="white" fill-opacity="0.08"/>
<path d="M5.60996 218.356L9.04558 232.382L0.338916 243.557L14.9598 244.424L22.2394 256.179L27.2887 242.968L41.4837 239.062L30.0116 228.983L31.0375 215.449L18.6623 223.06L5.60996 218.356Z" fill="white" fill-opacity="0.08"/>
<path d="M381.353 12.0223C382.422 11.6896 383.019 10.554 382.687 9.48578C382.355 8.41762 381.219 7.82137 380.15 8.15409L310.873 29.7126C309.804 30.0453 309.206 31.1809 309.538 32.2491C309.87 33.3173 311.006 33.9135 312.075 33.5808L381.353 12.0223Z" fill="white" fill-opacity="0.08"/>
<path d="M289.537 61.0183C289.727 59.9156 288.987 58.8684 287.884 58.6793C286.781 58.4903 285.732 59.231 285.542 60.3336L278.014 104C277.824 105.103 278.564 106.15 279.668 106.339C280.771 106.528 281.819 105.787 282.009 104.685L289.537 61.0183Z" fill="white" fill-opacity="0.08"/>
<path d="M440.2 76.7624C439.222 77.309 437.987 76.9608 437.441 75.9846L411.689 29.9581C411.143 28.982 411.493 27.7475 412.47 27.2009C413.447 26.6543 414.682 27.0024 415.228 27.9786L440.98 74.0051C441.526 74.9813 441.177 76.2158 440.2 76.7624Z" fill="white" fill-opacity="0.08"/>
<path d="M107.88 236.296C108.998 236.228 109.85 235.268 109.783 234.152C109.716 233.035 108.756 232.184 107.638 232.252L48.8023 235.814C47.6848 235.881 46.8329 236.841 46.8997 237.958C46.9665 239.075 47.9266 239.925 49.0441 239.858L107.88 236.296Z" fill="white" fill-opacity="0.08"/>
<path d="M251.907 141.033C252.427 142.024 252.045 143.248 251.053 143.769L221.12 159.477C220.128 159.998 218.903 159.617 218.383 158.626C217.863 157.636 218.246 156.411 219.237 155.891L249.171 140.182C250.162 139.662 251.387 140.043 251.907 141.033Z" fill="white" fill-opacity="0.08"/>
<path d="M187.722 184.215C188.416 183.337 188.267 182.063 187.389 181.37C186.511 180.677 185.236 180.827 184.542 181.705L155.478 218.478C154.784 219.356 154.933 220.63 155.812 221.323C156.69 222.016 157.965 221.866 158.659 220.988L187.722 184.215Z" fill="white" fill-opacity="0.08"/>
</svg>
