<svg width="623" height="398" viewBox="0 0 623 398" fill="none" xmlns="http://www.w3.org/2000/svg">
<path fill-rule="evenodd" clip-rule="evenodd" d="M124.891 0.000223991C137.319 -0.0525785 147.607 9.23639 149.112 21.2737L458.781 19.9581L458.911 19.9627C497.575 21.3082 525.896 30.418 546.439 44.8818C567.035 59.3821 579.241 78.8602 586.355 99.8714C593.434 120.777 595.509 143.296 595.889 164.196C596.08 174.668 595.845 184.826 595.575 194.227C595.532 195.708 595.489 197.167 595.446 198.603L595.446 198.618C595.225 206.061 595.022 212.917 595.031 219.127L622.079 344.334C624.342 353.981 622.533 363.863 615.562 370.898L600.291 391.291C594.927 396.705 587.624 397.553 580.005 397.585L510.344 397.881C500.491 397.923 497.707 393.013 502.922 384.645L518.278 358.043L487.862 307.311C487.862 307.436 487.798 307.286 487.674 306.994C487.063 305.563 485 300.733 481.973 308.178C481.683 308.626 481.399 309.056 481.119 309.479C479.163 312.441 477.414 315.088 475.4 321.369C470.795 335.73 465.101 355.873 466.106 387.75L466.143 396.595L346.081 397.105C346.748 391.002 349.274 380.875 355.557 373.477C358.973 369.454 361.066 368.106 364.929 365.619C366.039 364.904 367.295 364.095 368.771 363.101C361.203 341.006 350.174 292.785 364.874 251.118C359.844 249.106 354.995 246.87 350.322 244.426C357.767 277.791 350.175 312.827 338.971 341.356C330.175 363.751 318.936 382.709 310.131 394.597L308.154 397.266L201.334 397.72L200.959 391.456C200.701 387.126 202.174 382.844 203.976 379.21C205.269 376.605 206.936 374.671 208.74 372.578C209.53 371.661 210.346 370.715 211.169 369.668C214.911 364.904 220.198 360.048 224.191 356.379C224.77 355.847 225.322 355.341 225.838 354.863L220.193 334.548L172.274 354.43L178.841 388.97L178.878 397.815L135.42 398L104.384 374.544L87.2048 318.596L146.617 259.374L146.323 190.086L113.585 190.225C113.396 190.402 113.208 190.565 113.026 190.718C111.624 191.884 109.982 192.785 108.4 193.498C105.225 194.931 101.198 196.093 96.9302 197.064C88.319 199.021 77.4604 200.469 67.4294 201.476C52.7863 202.943 38.4661 198.201 27.151 189.299L4.78265 171.7C-0.819397 167.293 -1.62177 159.101 3.02087 153.688L38.8289 111.937C36.4353 104.732 37.5616 97.2743 40.4581 90.4086C43.8973 82.2549 50.0567 74.3008 57.0767 67.0718C70.2585 53.496 87.7416 41.2056 100.726 33.4509L100.687 24.428C100.63 10.994 111.466 0.0572625 124.891 0.000223991ZM112.604 55.3364L112.473 24.3779C112.443 17.4573 118.026 11.8233 124.941 11.7939C131.856 11.7646 137.487 17.3509 137.516 24.2715L137.648 55.23C137.677 62.1507 132.094 67.7846 125.179 67.814C118.264 67.8434 112.633 62.2571 112.604 55.3364ZM149.433 55.1799L149.345 34.5409L183.309 34.3966C183.96 74.5721 184.811 146.714 183.785 161.427C183.399 166.961 180.649 170.483 177.048 172.885C173.315 175.378 168.83 176.499 165.923 176.734L116.627 176.944L116.615 176.86C116.182 173.888 115.391 170.392 114.254 166.606C111.981 159.04 108.22 149.964 102.78 141.188C92.5882 124.748 75.7816 108.352 51.1059 106.627C50.3958 103.487 50.8607 99.862 52.6721 95.5695C55.1982 89.582 60.0922 83.0047 66.5841 76.3184C76.6153 65.9891 89.6116 56.2589 100.792 49.0308L100.819 55.3865C100.876 68.8205 111.804 79.6647 125.229 79.6077C138.654 79.5507 149.49 68.614 149.433 55.1799ZM583.714 228.939L611.792 350.275C613.01 355.469 610.449 360.513 606.695 364.302L592.042 382.792C589.153 385.707 584.061 386.511 579.958 386.529L511.993 386.818L531.997 354.724L531.323 351.999C521.569 312.537 529.729 283.598 543.373 263.357C555.01 246.089 570.846 234.855 583.714 228.939ZM581.79 215.313C566.298 221.659 546.605 234.832 532.381 255.938C520.532 273.517 512.64 296.369 513.924 324.845L466.267 252.359L465.338 33.5553C498.52 35.6174 522.051 43.9337 538.81 55.7334C556.655 68.2971 567.392 85.2089 573.798 104.129C580.24 123.155 582.263 144.108 582.633 164.438C582.817 174.58 582.591 184.477 582.322 193.846C582.28 195.298 582.237 196.74 582.195 198.17C582.017 204.155 581.846 209.926 581.79 215.313ZM452.078 33.2547L452.992 248.501C423.12 251.836 397.528 248.679 375.63 240.988C329.849 224.907 299.07 188.56 279.268 147.282C260.799 108.782 252.169 66.5403 249.884 34.1138L452.078 33.2547ZM236.597 34.1702C242.301 68.7906 251.168 112.093 270.648 152.701C285.663 184.002 306.235 207.097 333.532 234.289C344.156 262.799 340.532 294.682 331.411 323.112C322.761 309.431 309.975 293.346 293.706 279.639C273.174 262.342 241.671 247.879 210.577 248.045L197.202 192.081L197.071 161.401C197.052 156.81 197.051 148.827 197.05 138.832C197.047 109.708 197.041 63.4994 196.569 34.3403L236.597 34.1702ZM99.5647 321.686C134.327 320.934 152.74 342.283 157.79 353.185L168.781 384.59L137.48 384.723L113.025 367.491L99.5647 321.686ZM231.452 323.964L218.328 261.904C244.16 262.561 266.804 274.319 285.166 289.788C304.145 305.778 318.063 325.35 325.518 339.287C317.999 357.734 310.766 374.931 303.31 385.493L217.13 385.859C217.607 384.96 218.031 383.833 218.485 382.63C219.269 380.548 220.14 378.238 221.512 376.492C226.266 370.441 232.145 364.712 236.06 361.341L239.058 358.761L231.461 324.008L231.452 323.964ZM49.5356 119.824C68.6724 120.924 82.3895 133.467 91.5135 148.183C96.272 155.857 99.5808 163.844 101.556 170.425C102.544 173.715 103.173 176.564 103.494 178.77C103.636 179.744 103.701 180.487 103.729 181.023C103.517 181.136 103.26 181.263 102.951 181.402C100.969 182.297 97.9425 183.227 93.9938 184.125C86.1728 185.902 75.9474 187.287 66.1079 188.274C55.1904 189.367 44.2253 185.854 35.3462 178.868L28.2512 173.286C30.3152 169.835 31.9365 165.495 32.0761 160.564C32.2156 155.613 30.8371 150.481 27.4808 145.54L49.5356 119.824Z" fill="white" fill-opacity="0.1"/>
</svg>
