<svg width="120" height="96" viewBox="0 0 120 96" fill="none" xmlns="http://www.w3.org/2000/svg">
<path fill-rule="evenodd" clip-rule="evenodd" d="M76.8878 36.9759C77.0351 35.7567 79.3323 34.8119 79.3323 34.8119C79.3323 34.8119 81.7948 35.9144 81.7948 37.2744V38.1878C83.1135 38.9672 84.8898 40.2039 86.2311 41.5725C86.9454 42.3013 87.5726 43.1038 87.9247 43.9278C88.221 44.6215 88.3383 45.376 88.099 46.1064L91.7444 50.3175C92.217 50.8634 92.1393 51.693 91.5736 52.1417L89.3152 53.9328C88.1729 54.8388 86.7241 55.3251 85.2402 55.1828C84.2235 55.0854 83.1229 54.9434 82.2496 54.7488C81.8169 54.6525 81.4084 54.5365 81.0862 54.3928C80.9256 54.3213 80.7589 54.2309 80.6164 54.1134C80.5979 54.0981 80.5788 54.0816 80.5595 54.0638H77.243V61.078L83.2872 67.0476L81.5709 72.7187L78.4369 75.1065H74.0343V74.2111L74.6847 70.7117L69.8217 68.7196L69.2587 70.7786C69.6732 71.1589 70.3147 71.7207 70.7511 72.271C71.0262 72.6179 71.2939 72.8555 71.4838 73.2339C71.668 73.601 71.8191 74.0337 71.7947 74.4722L71.7595 75.1065H60.938L60.7366 74.8371C59.8395 73.6375 58.6926 71.7232 57.792 69.4599C56.6447 66.5766 55.8606 63.0331 56.6004 59.6525C56.128 59.9018 55.6378 60.1304 55.1291 60.3361C56.6362 64.5478 55.5398 69.434 54.7825 71.674C55.4541 72.1217 55.6779 72.1964 56.1256 72.7187C56.7652 73.4649 57.0255 74.4889 57.0957 75.1065H44.9327V74.2111C45.0207 70.9837 44.4353 68.947 43.9626 67.4953C43.7263 66.7695 43.5271 66.5241 43.2911 66.1628C42.918 65.2567 42.6941 66.1522 42.6941 66.0775L39.6347 71.2263L41.2017 73.9126C41.7336 74.7574 41.4538 75.2558 40.4555 75.2558H33.3985C32.6266 75.2558 31.8864 75.173 31.3407 74.6272L29.7849 72.5695C29.0757 71.8602 28.8882 70.8605 29.1133 69.8831L31.7995 57.1965C31.7977 56.568 31.7742 55.874 31.7486 55.1206L31.7486 55.1192C31.7436 54.9737 31.7386 54.826 31.7337 54.6762C31.7023 53.7246 31.6741 52.6965 31.6889 51.6363C31.7185 49.5204 31.919 47.2398 32.6271 45.1205C33.3387 42.9904 34.5669 41.0134 36.6471 39.5367C38.722 38.0636 41.5871 37.1292 45.5034 36.9764L45.5165 36.9759H76.8878ZM80.6009 37.2744V40.4084C80.6009 41.109 80.0329 41.6769 79.3323 41.6769C78.6317 41.6769 78.0638 41.109 78.0638 40.4084V37.2744C78.0638 36.5738 78.6317 36.0058 79.3323 36.0058C80.0329 36.0058 80.6009 36.5738 80.6009 37.2744ZM76.8699 38.3191V40.4084C76.8699 41.7684 77.9724 42.8708 79.3323 42.8708C80.6923 42.8708 81.7948 41.7684 81.7948 40.4084V39.765C82.9305 40.4919 84.2513 41.4713 85.2718 42.5126C85.9325 43.1867 86.431 43.8504 86.6895 44.4555C86.8748 44.8892 86.9236 45.256 86.853 45.5742C84.3539 45.7594 82.6584 47.4265 81.633 49.0951C81.0857 49.9857 80.7086 50.9061 80.4816 51.6731C80.368 52.0568 80.2894 52.411 80.2469 52.712L80.2457 52.7206H75.2517C74.9571 52.6981 74.5022 52.5864 74.1229 52.3357C73.7573 52.094 73.477 51.7387 73.4355 51.1786C73.3253 49.6896 73.3805 42.3863 73.4291 38.3191H76.8699ZM30.158 70.4801L32.9502 58.185C34.2563 58.7784 35.8653 59.9089 37.0517 61.6518C38.4425 63.6951 39.2817 66.621 38.3105 70.6201L38.2435 70.8961L40.2837 74.1365H33.3985C32.9829 74.1365 32.4666 74.0572 32.1727 73.7634L30.6803 71.8979C30.2984 71.516 30.0368 71.0064 30.158 70.4801ZM38.1621 60.896C36.712 58.7657 34.7113 57.4406 33.1392 56.8047C33.1312 56.2595 33.1114 55.6754 33.0908 55.0695C33.0859 54.9248 33.081 54.7789 33.0761 54.6319C33.0448 53.6836 33.0176 52.6818 33.032 51.655C33.0607 49.5969 33.2566 47.4749 33.901 45.5461C34.5418 43.628 35.6222 41.9114 37.4246 40.6319C39.1173 39.4302 41.4975 38.5782 44.8581 38.3552V60.5054L40.0615 67.8638C40.1792 64.9805 39.3699 62.6705 38.1621 60.896ZM46.2012 60.1092V38.3191H66.6848C66.4672 41.6026 65.6111 45.8825 63.7566 49.788C61.7684 53.975 58.666 57.6678 54.035 59.3153C51.82 60.1033 49.2289 60.4339 46.2012 60.1092ZM64.6323 50.3328C66.5883 46.2136 67.4678 41.8262 68.0307 38.3191H72.0858C72.0384 42.2841 72.0896 49.3628 72.0896 51.1817V54.2876L70.7586 59.9587C67.6088 59.9552 64.4235 61.4328 62.351 63.1927C60.7087 64.5874 59.4204 66.221 58.55 67.6098C57.6138 64.7357 57.233 61.5097 58.2969 58.6189C61.0505 55.8547 63.1246 53.5079 64.6323 50.3328ZM76.1514 70.5794C76.6584 69.4735 78.5144 67.3046 82.0364 67.3657L80.6925 72.0084L78.2226 73.7634H75.0515L76.1514 70.5794ZM69.9796 61.3649L68.6766 67.6531L68.6757 67.6575L67.9211 71.1788L68.2259 71.4388C68.624 71.7783 69.222 72.3557 69.7063 72.9662C69.9267 73.2441 70.0214 73.6646 70.1541 73.9126H61.4236C60.6637 72.8465 59.9236 71.1088 59.154 69.2446C59.9032 67.8307 61.3047 65.8434 63.2205 64.2165C65.074 62.6425 67.3629 61.4426 69.9796 61.3649ZM82.7774 49.7983C83.6953 48.3046 85.0795 47.029 87.0177 46.9095L89.263 49.5032C88.9251 50.0049 88.7877 50.5251 88.804 51.0262C88.8202 51.5252 88.9863 51.9637 89.197 52.3123L88.4806 52.8805C87.5841 53.5914 86.4747 53.9519 85.3684 53.8458C84.3711 53.7502 83.3346 53.6144 82.5416 53.4378C82.1412 53.3486 81.8342 53.2557 81.633 53.166C81.6017 53.1521 81.5756 53.1393 81.554 53.1281C81.5566 53.0737 81.5629 52.9985 81.5769 52.8998C81.6084 52.6764 81.6709 52.3876 81.7695 52.0543C81.9669 51.3872 82.2987 50.5773 82.7774 49.7983Z" fill="url(#paint0_linear_26_5988)"/>
<path d="M1.95178 82.27C2.52873 82.27 2.99645 82.5402 2.99645 82.8735V93.3726C2.99645 93.6033 3.35836 94.1895 3.74265 94.1895H7.32439C7.70869 94.1895 8.07059 93.6033 8.07059 93.3726V82.8735C8.07059 82.5402 8.53831 82.27 9.11526 82.27C9.69222 82.27 10.1599 82.5402 10.1599 82.8735V93.3726C10.1599 94.8774 8.90264 96 7.47363 96H3.59341C2.16441 96 0.907104 94.8774 0.907104 93.3726V82.8735C0.907104 82.5402 1.37483 82.27 1.95178 82.27Z" fill="url(#paint1_linear_26_5988)"/>
<path d="M16.2787 95.053V83.9243H19.9351C20.4296 83.9243 21.0544 84.629 21.0544 85.1274V87.308C21.0544 87.8063 20.4296 88.4359 19.9351 88.4359H17.6965C17.3256 88.4359 17.0249 88.8399 17.0249 89.3382C17.0249 89.8366 17.3256 90.2406 17.6965 90.2406H19.0397L22.257 95.6095L22.2577 95.6106C22.5196 96.0333 23.1287 96.1263 23.6181 95.8183C24.1074 95.5104 24.2918 94.9181 24.0298 94.4954L24.0287 94.4935L21.2886 90.0929C22.377 89.6441 22.9945 88.5663 22.9945 87.308V85.1274C22.9945 83.4662 21.8074 82.27 20.159 82.27H15.6818C14.6927 82.27 14.1894 82.7212 14.1894 83.4731V95.053C14.1894 95.5513 14.6571 95.9553 15.2341 95.9553C15.811 95.9553 16.2787 95.5513 16.2787 95.053Z" fill="url(#paint2_linear_26_5988)"/>
<path d="M87.0182 83.9243V95.053C87.0182 95.5513 86.5504 95.9553 85.9735 95.9553C85.3965 95.9553 84.9288 95.5513 84.9288 95.053V83.4731C84.9288 82.7212 85.4321 82.27 86.4212 82.27H90.8984C92.5468 82.27 93.7339 83.4662 93.7339 85.1274V87.308C93.7339 88.5663 93.1164 89.6441 92.028 90.0929L94.7681 94.4935L94.7692 94.4954C95.0312 94.9181 94.8468 95.5104 94.3575 95.8183C93.8681 96.1263 93.259 96.0333 92.9971 95.6106L92.9964 95.6095L89.7791 90.2406H88.4359C88.065 90.2406 87.7644 89.8366 87.7644 89.3382C87.7644 88.8399 88.065 88.4359 88.4359 88.4359H90.6745C91.1691 88.4359 91.7938 87.8063 91.7938 87.308V85.1274C91.7938 84.629 91.1691 83.9243 90.6745 83.9243H87.0182Z" fill="url(#paint3_linear_26_5988)"/>
<path d="M27.3225 85.3703C27.3225 83.6581 28.7256 82.27 30.4565 82.27H33.4413C35.1721 82.27 36.5753 83.6581 36.5753 85.3703V86.2561C36.5753 86.623 36.1076 86.9205 35.5306 86.9205C34.9537 86.9205 34.4859 86.623 34.4859 86.2561V85.3703C34.4859 84.7996 34.0182 84.3369 33.4413 84.3369H30.4565C29.8795 84.3369 29.4118 84.7996 29.4118 85.3703V86.8467C29.4118 87.4174 29.8795 87.8801 30.4565 87.8801H33.4413C35.1721 87.8801 36.5753 89.2682 36.5753 90.9804V92.8997C36.5753 94.6119 35.1721 96 33.4413 96H30.4565C28.7256 96 27.3225 94.6119 27.3225 92.8997V91.8662C27.3225 91.4993 27.7902 91.2019 28.3671 91.2019C28.9441 91.2019 29.4118 91.4993 29.4118 91.8662V92.8997C29.4118 93.4704 29.8795 93.9331 30.4565 93.9331H33.4413C34.0182 93.9331 34.4859 93.4704 34.4859 92.8997V90.9804C34.4859 90.4097 34.0182 89.947 33.4413 89.947H30.4565C28.7256 89.947 27.3225 88.5589 27.3225 86.8467V85.3703Z" fill="url(#paint4_linear_26_5988)"/>
<path d="M113.881 82.27C112.15 82.27 110.747 83.6581 110.747 85.3703V86.8467C110.747 88.5589 112.15 89.947 113.881 89.947H116.866C117.443 89.947 117.911 90.4097 117.911 90.9804V92.8997C117.911 93.4704 117.443 93.9331 116.866 93.9331H113.881C113.304 93.9331 112.837 93.4704 112.837 92.8997V91.8662C112.837 91.4993 112.369 91.2019 111.792 91.2019C111.215 91.2019 110.747 91.4993 110.747 91.8662V92.8997C110.747 94.6119 112.15 96 113.881 96H116.866C118.597 96 120 94.6119 120 92.8997V90.9804C120 89.2682 118.597 87.8801 116.866 87.8801H113.881C113.304 87.8801 112.837 87.4174 112.837 86.8467V85.3703C112.837 84.7996 113.304 84.3369 113.881 84.3369H116.866C117.443 84.3369 117.911 84.7996 117.911 85.3703V86.2561C117.911 86.623 118.378 86.9205 118.955 86.9205C119.532 86.9205 120 86.623 120 86.2561V85.3703C120 83.6581 118.597 82.27 116.866 82.27H113.881Z" fill="url(#paint5_linear_26_5988)"/>
<path d="M50.4507 95.6315C49.9131 95.8353 49.3119 95.5659 49.1061 95.0291L45.3275 85.1757L41.7205 95.0095C41.5225 95.5493 40.9252 95.8274 40.3846 95.6314C39.8411 95.4344 39.5612 94.8332 39.7603 94.2905L43.7759 83.3429C44.2966 81.9234 46.3108 81.9088 46.8522 83.3206L51.0554 94.2816C51.2624 94.8214 50.9913 95.4267 50.4507 95.6315Z" fill="url(#paint6_linear_26_5988)"/>
<path d="M45.4177 92.8854C46.1183 92.8854 46.6862 92.3208 46.6862 91.6244C46.6862 90.9279 46.1183 90.3633 45.4177 90.3633C44.7171 90.3633 44.1492 90.9279 44.1492 91.6244C44.1492 92.3208 44.7171 92.8854 45.4177 92.8854Z" fill="url(#paint7_linear_26_5988)"/>
<path d="M68.2817 83.8157L65.2665 95.099C64.9505 96.2816 63.261 96.2737 62.9561 95.0883L60.8564 86.926L58.5492 95.1321C58.2207 96.3003 56.5509 96.2851 56.2439 95.1111L53.29 83.8116C53.1439 83.2527 53.4794 82.6812 54.0387 82.5365C54.5962 82.3922 55.1652 82.7263 55.3108 83.2834L57.4309 91.3932L59.7451 83.1622C60.0742 81.9916 61.7486 82.0102 62.0515 83.1877L64.1292 91.2647L66.2639 83.2764C66.4125 82.7202 66.9833 82.3892 67.5399 82.5364C68.0985 82.6842 68.4309 83.2575 68.2817 83.8157Z" fill="url(#paint8_linear_26_5988)"/>
<path fill-rule="evenodd" clip-rule="evenodd" d="M71.6465 84.9563C71.6465 83.4727 72.8492 82.27 74.3328 82.27H78.0638C79.5474 82.27 80.7501 83.4727 80.7501 84.9563V93.3137C80.7501 94.7973 79.5474 96 78.0638 96H74.3328C72.8492 96 71.6465 94.7973 71.6465 93.3137V84.9563ZM73.8851 84.976C73.8851 84.4814 74.286 84.0805 74.7805 84.0805H77.6161C78.1106 84.0805 78.5115 84.4814 78.5115 84.976V93.1431C78.5115 93.6377 78.1106 94.0386 77.6161 94.0386H74.7805C74.286 94.0386 73.8851 93.6377 73.8851 93.1431V84.976Z" fill="url(#paint9_linear_26_5988)"/>
<path d="M105.102 83.0331C105.481 82.61 106.131 82.5708 106.558 82.945C106.994 83.3261 107.034 83.9898 106.648 84.4206L100.077 91.7417V94.9462C100.077 95.5232 99.6089 95.9909 99.0319 95.9909C98.455 95.9909 97.9872 95.5232 97.9872 94.9462V83.6302C97.9872 83.0532 98.455 82.5855 99.0319 82.5855C99.6089 82.5855 100.077 83.0532 100.077 83.6302V88.6317L105.102 83.0331Z" fill="url(#paint10_linear_26_5988)"/>
<path d="M102.827 90.9613C102.488 90.4915 102.598 89.8351 103.072 89.5018C103.538 89.1742 104.18 89.2821 104.513 89.7438L107.549 93.9495C107.888 94.4193 107.778 95.0757 107.304 95.409C106.838 95.7366 106.196 95.6287 105.863 95.167L102.827 90.9613Z" fill="url(#paint11_linear_26_5988)"/>
<path d="M39.7814 0L40.1957 1.88733L41.8989 2.71595L40.1957 3.68263L40.0149 5.52393L38.6306 4.23501L36.6972 4.60328L37.4798 2.71593L36.5591 1.15083L38.4925 1.33495L39.7814 0Z" fill="url(#paint12_linear_26_5988)"/>
<path d="M15.8697 7.70766L15.4554 5.82033L14.1665 7.15528L12.2331 6.97116L13.1538 8.53625L12.3712 10.4236L14.3046 10.0553L15.6889 11.3443L15.8697 9.50296L17.5729 8.53627L15.8697 7.70766Z" fill="url(#paint13_linear_26_5988)"/>
<path d="M16.2041 28.6185L15.5326 25.5591L13.4432 27.7231L10.3092 27.4246L11.8016 29.9617L10.533 33.0211L13.6671 32.4241L15.9111 34.5135L16.2041 31.5287L18.9651 29.9617L16.2041 28.6185Z" fill="url(#paint14_linear_26_5988)"/>
<path d="M53.478 17.4082L53.0637 15.5209L51.7748 16.8558L49.8414 16.6717L50.7621 18.2368L49.9795 20.1242L51.9129 19.7559L53.2972 21.0448L53.478 19.2035L55.1812 18.2368L53.478 17.4082Z" fill="url(#paint15_linear_26_5988)"/>
<path d="M70.3755 17.0133L70.7897 18.9006L72.493 19.7292L70.7897 20.6959L70.609 22.5372L69.2246 21.2483L67.2913 21.6165L68.0738 19.7292L67.1532 18.1641L69.0865 18.3482L70.3755 17.0133Z" fill="url(#paint16_linear_26_5988)"/>
<path d="M90.5459 24.5694L89.8615 21.4517L87.7323 23.6569L84.5385 23.3528L86.0593 25.9382L84.7666 29.056L87.9604 28.4476L90.2472 30.5768L90.5459 27.5351L93.3594 25.9383L90.5459 24.5694Z" fill="url(#paint17_linear_26_5988)"/>
<path d="M113.292 10.8557L113.976 13.9734L116.79 15.3423L113.976 16.9392L113.678 19.9809L111.391 17.8517L108.197 18.46L109.49 15.3422L107.969 12.7568L111.163 13.061L113.292 10.8557Z" fill="url(#paint18_linear_26_5988)"/>
<path d="M18.7303 6.53124C18.486 6.5694 18.257 6.40231 18.2189 6.15801C18.1807 5.91371 18.3478 5.68472 18.5921 5.64655L34.4222 3.1731C34.6665 3.13493 34.8955 3.30203 34.9337 3.54633C34.9718 3.79062 34.8047 4.01962 34.5604 4.05779L18.7303 6.53124Z" fill="url(#paint19_linear_26_5988)"/>
<path d="M41.6986 7.30556C41.5536 7.10529 41.5984 6.82538 41.7987 6.68035C41.9989 6.53532 42.2788 6.58011 42.4239 6.78038L48.1667 14.711C48.3118 14.9113 48.267 15.1912 48.0667 15.3362C47.8664 15.4813 47.5865 15.4365 47.4415 15.2362L41.6986 7.30556Z" fill="url(#paint20_linear_26_5988)"/>
<path d="M13.3686 25.1114C13.6155 25.1246 13.8264 24.9352 13.8396 24.6883L14.4633 13.0463C14.4765 12.7994 14.2871 12.5885 14.0402 12.5753C13.7933 12.5621 13.5824 12.7515 13.5691 12.9984L12.9455 24.6404C12.9322 24.8873 13.1217 25.0982 13.3686 25.1114Z" fill="url(#paint21_linear_26_5988)"/>
<path d="M94.7675 24.3814C94.5394 24.4769 94.2771 24.3694 94.1816 24.1413C94.0862 23.9132 94.1937 23.6509 94.4218 23.5555L106.43 18.5286C106.658 18.4331 106.921 18.5406 107.016 18.7687C107.112 18.9968 107.004 19.2591 106.776 19.3546L94.7675 24.3814Z" fill="url(#paint22_linear_26_5988)"/>
<path d="M56.9464 19.5149C56.9398 19.7621 57.1348 19.9678 57.382 19.9745L64.8443 20.1743C65.0915 20.181 65.2972 19.986 65.3038 19.7388C65.3105 19.4916 65.1155 19.2858 64.8683 19.2792L57.406 19.0794C57.1588 19.0727 56.9531 19.2677 56.9464 19.5149Z" fill="url(#paint23_linear_26_5988)"/>
<path d="M73.8721 21.8282C73.649 21.7216 73.5546 21.4543 73.6612 21.2312C73.7679 21.0081 74.0352 20.9137 74.2583 21.0203L83.5986 25.4844C83.8217 25.591 83.9161 25.8583 83.8095 26.0814C83.7029 26.3045 83.4356 26.399 83.2125 26.2923L73.8721 21.8282Z" fill="url(#paint24_linear_26_5988)"/>
<defs>
<linearGradient id="paint0_linear_26_5988" x1="67.9155" y1="108.497" x2="67.9155" y2="2.71436e-07" gradientUnits="userSpaceOnUse">
<stop stop-color="#E87ABA"/>
<stop offset="0.139339" stop-color="#C871C7"/>
<stop offset="1" stop-color="#605DDC"/>
</linearGradient>
<linearGradient id="paint1_linear_26_5988" x1="67.9155" y1="108.497" x2="67.9155" y2="2.71436e-07" gradientUnits="userSpaceOnUse">
<stop stop-color="#E87ABA"/>
<stop offset="0.139339" stop-color="#C871C7"/>
<stop offset="1" stop-color="#605DDC"/>
</linearGradient>
<linearGradient id="paint2_linear_26_5988" x1="67.9155" y1="108.497" x2="67.9155" y2="2.71436e-07" gradientUnits="userSpaceOnUse">
<stop stop-color="#E87ABA"/>
<stop offset="0.139339" stop-color="#C871C7"/>
<stop offset="1" stop-color="#605DDC"/>
</linearGradient>
<linearGradient id="paint3_linear_26_5988" x1="67.9155" y1="108.497" x2="67.9155" y2="2.71436e-07" gradientUnits="userSpaceOnUse">
<stop stop-color="#E87ABA"/>
<stop offset="0.139339" stop-color="#C871C7"/>
<stop offset="1" stop-color="#605DDC"/>
</linearGradient>
<linearGradient id="paint4_linear_26_5988" x1="67.9155" y1="108.497" x2="67.9155" y2="2.71436e-07" gradientUnits="userSpaceOnUse">
<stop stop-color="#E87ABA"/>
<stop offset="0.139339" stop-color="#C871C7"/>
<stop offset="1" stop-color="#605DDC"/>
</linearGradient>
<linearGradient id="paint5_linear_26_5988" x1="67.9155" y1="108.497" x2="67.9155" y2="2.71436e-07" gradientUnits="userSpaceOnUse">
<stop stop-color="#E87ABA"/>
<stop offset="0.139339" stop-color="#C871C7"/>
<stop offset="1" stop-color="#605DDC"/>
</linearGradient>
<linearGradient id="paint6_linear_26_5988" x1="67.9155" y1="108.497" x2="67.9155" y2="2.71436e-07" gradientUnits="userSpaceOnUse">
<stop stop-color="#E87ABA"/>
<stop offset="0.139339" stop-color="#C871C7"/>
<stop offset="1" stop-color="#605DDC"/>
</linearGradient>
<linearGradient id="paint7_linear_26_5988" x1="67.9155" y1="108.497" x2="67.9155" y2="2.71436e-07" gradientUnits="userSpaceOnUse">
<stop stop-color="#E87ABA"/>
<stop offset="0.139339" stop-color="#C871C7"/>
<stop offset="1" stop-color="#605DDC"/>
</linearGradient>
<linearGradient id="paint8_linear_26_5988" x1="67.9155" y1="108.497" x2="67.9155" y2="2.71436e-07" gradientUnits="userSpaceOnUse">
<stop stop-color="#E87ABA"/>
<stop offset="0.139339" stop-color="#C871C7"/>
<stop offset="1" stop-color="#605DDC"/>
</linearGradient>
<linearGradient id="paint9_linear_26_5988" x1="67.9155" y1="108.497" x2="67.9155" y2="2.71436e-07" gradientUnits="userSpaceOnUse">
<stop stop-color="#E87ABA"/>
<stop offset="0.139339" stop-color="#C871C7"/>
<stop offset="1" stop-color="#605DDC"/>
</linearGradient>
<linearGradient id="paint10_linear_26_5988" x1="67.9155" y1="108.497" x2="67.9155" y2="2.71436e-07" gradientUnits="userSpaceOnUse">
<stop stop-color="#E87ABA"/>
<stop offset="0.139339" stop-color="#C871C7"/>
<stop offset="1" stop-color="#605DDC"/>
</linearGradient>
<linearGradient id="paint11_linear_26_5988" x1="67.9155" y1="108.497" x2="67.9155" y2="2.71436e-07" gradientUnits="userSpaceOnUse">
<stop stop-color="#E87ABA"/>
<stop offset="0.139339" stop-color="#C871C7"/>
<stop offset="1" stop-color="#605DDC"/>
</linearGradient>
<linearGradient id="paint12_linear_26_5988" x1="67.9155" y1="108.497" x2="67.9155" y2="2.71436e-07" gradientUnits="userSpaceOnUse">
<stop stop-color="#E87ABA"/>
<stop offset="0.139339" stop-color="#C871C7"/>
<stop offset="1" stop-color="#605DDC"/>
</linearGradient>
<linearGradient id="paint13_linear_26_5988" x1="67.9155" y1="108.497" x2="67.9155" y2="2.71436e-07" gradientUnits="userSpaceOnUse">
<stop stop-color="#E87ABA"/>
<stop offset="0.139339" stop-color="#C871C7"/>
<stop offset="1" stop-color="#605DDC"/>
</linearGradient>
<linearGradient id="paint14_linear_26_5988" x1="67.9155" y1="108.497" x2="67.9155" y2="2.71436e-07" gradientUnits="userSpaceOnUse">
<stop stop-color="#E87ABA"/>
<stop offset="0.139339" stop-color="#C871C7"/>
<stop offset="1" stop-color="#605DDC"/>
</linearGradient>
<linearGradient id="paint15_linear_26_5988" x1="67.9155" y1="108.497" x2="67.9155" y2="2.71436e-07" gradientUnits="userSpaceOnUse">
<stop stop-color="#E87ABA"/>
<stop offset="0.139339" stop-color="#C871C7"/>
<stop offset="1" stop-color="#605DDC"/>
</linearGradient>
<linearGradient id="paint16_linear_26_5988" x1="67.9155" y1="108.497" x2="67.9155" y2="2.71436e-07" gradientUnits="userSpaceOnUse">
<stop stop-color="#E87ABA"/>
<stop offset="0.139339" stop-color="#C871C7"/>
<stop offset="1" stop-color="#605DDC"/>
</linearGradient>
<linearGradient id="paint17_linear_26_5988" x1="67.9155" y1="108.497" x2="67.9155" y2="2.71436e-07" gradientUnits="userSpaceOnUse">
<stop stop-color="#E87ABA"/>
<stop offset="0.139339" stop-color="#C871C7"/>
<stop offset="1" stop-color="#605DDC"/>
</linearGradient>
<linearGradient id="paint18_linear_26_5988" x1="67.9155" y1="108.497" x2="67.9155" y2="2.71436e-07" gradientUnits="userSpaceOnUse">
<stop stop-color="#E87ABA"/>
<stop offset="0.139339" stop-color="#C871C7"/>
<stop offset="1" stop-color="#605DDC"/>
</linearGradient>
<linearGradient id="paint19_linear_26_5988" x1="67.9155" y1="108.497" x2="67.9155" y2="2.71436e-07" gradientUnits="userSpaceOnUse">
<stop stop-color="#E87ABA"/>
<stop offset="0.139339" stop-color="#C871C7"/>
<stop offset="1" stop-color="#605DDC"/>
</linearGradient>
<linearGradient id="paint20_linear_26_5988" x1="67.9155" y1="108.497" x2="67.9155" y2="2.71436e-07" gradientUnits="userSpaceOnUse">
<stop stop-color="#E87ABA"/>
<stop offset="0.139339" stop-color="#C871C7"/>
<stop offset="1" stop-color="#605DDC"/>
</linearGradient>
<linearGradient id="paint21_linear_26_5988" x1="67.9155" y1="108.497" x2="67.9155" y2="2.71436e-07" gradientUnits="userSpaceOnUse">
<stop stop-color="#E87ABA"/>
<stop offset="0.139339" stop-color="#C871C7"/>
<stop offset="1" stop-color="#605DDC"/>
</linearGradient>
<linearGradient id="paint22_linear_26_5988" x1="67.9155" y1="108.497" x2="67.9155" y2="2.71436e-07" gradientUnits="userSpaceOnUse">
<stop stop-color="#E87ABA"/>
<stop offset="0.139339" stop-color="#C871C7"/>
<stop offset="1" stop-color="#605DDC"/>
</linearGradient>
<linearGradient id="paint23_linear_26_5988" x1="67.9155" y1="108.497" x2="67.9155" y2="2.71436e-07" gradientUnits="userSpaceOnUse">
<stop stop-color="#E87ABA"/>
<stop offset="0.139339" stop-color="#C871C7"/>
<stop offset="1" stop-color="#605DDC"/>
</linearGradient>
<linearGradient id="paint24_linear_26_5988" x1="67.9155" y1="108.497" x2="67.9155" y2="2.71436e-07" gradientUnits="userSpaceOnUse">
<stop stop-color="#E87ABA"/>
<stop offset="0.139339" stop-color="#C871C7"/>
<stop offset="1" stop-color="#605DDC"/>
</linearGradient>
</defs>
</svg>
