<svg width="255" height="83" viewBox="0 0 255 83" fill="none" xmlns="http://www.w3.org/2000/svg">
<path d="M70.58 0L71.5722 4.53876L75.651 6.53146L71.5722 8.8562L71.1393 13.2843L67.824 10.1846L63.194 11.0702L65.0681 6.53142L62.8633 2.76758L67.4933 3.21037L70.58 0Z" fill="url(#paint0_linear_26_6027)"/>
<path d="M13.3163 18.5358L12.3242 13.9971L9.2375 17.2074L4.60748 16.7646L6.81225 20.5285L4.93819 25.0673L9.56821 24.1816L12.8834 27.2813L13.3163 22.8533L17.3951 20.5285L13.3163 18.5358Z" fill="url(#paint1_linear_26_6027)"/>
<path d="M14.1172 68.8234L12.5089 61.466L7.50535 66.6701L0 65.9523L3.57399 72.0535L0.536097 79.411L8.04144 77.9754L13.4155 83L14.1172 75.822L20.7291 72.0536L14.1172 68.8234Z" fill="url(#paint2_linear_26_6027)"/>
<path d="M103.381 41.8642L102.388 37.3255L99.3017 40.5359L94.6717 40.0931L96.8765 43.8569L95.0024 48.3957L99.6324 47.5101L102.948 50.6097L103.381 46.1817L107.459 43.8569L103.381 41.8642Z" fill="url(#paint3_linear_26_6027)"/>
<path d="M143.847 40.9145L144.839 45.4532L148.918 47.4459L144.839 49.7707L144.406 54.1987L141.091 51.0991L136.461 51.9847L138.335 47.4459L136.13 43.682L140.76 44.1248L143.847 40.9145Z" fill="url(#paint4_linear_26_6027)"/>
<path d="M192.151 59.086L190.512 51.5882L185.413 56.8916L177.764 56.16L181.406 62.3777L178.31 69.8755L185.959 68.4125L191.435 73.5329L192.151 66.2181L198.889 62.3778L192.151 59.086Z" fill="url(#paint5_linear_26_6027)"/>
<path d="M246.623 26.1064L248.262 33.6041L255 36.896L248.262 40.7362L247.547 48.0511L242.07 42.9307L234.422 44.3937L237.518 36.8959L233.876 30.6782L241.524 31.4097L246.623 26.1064Z" fill="url(#paint6_linear_26_6027)"/>
<path d="M20.1669 15.7067C19.5819 15.7985 19.0335 15.3966 18.9421 14.8091C18.8507 14.2216 19.2508 13.6709 19.8359 13.5791L57.7458 7.63085C58.3308 7.53907 58.8792 7.9409 58.9706 8.5284C59.062 9.11591 58.6619 9.66661 58.0768 9.7584L20.1669 15.7067Z" fill="url(#paint7_linear_26_6027)"/>
<path d="M75.1714 17.5688C74.8241 17.0872 74.9313 16.4141 75.4109 16.0653C75.8905 15.7165 76.5609 15.8242 76.9082 16.3058L90.6612 35.3779C91.0085 35.8595 90.9012 36.5326 90.4216 36.8814C89.942 37.2302 89.2717 37.1225 88.9244 36.6408L75.1714 17.5688Z" fill="url(#paint8_linear_26_6027)"/>
<path d="M7.32664 60.3893C7.91795 60.4211 8.42298 59.9655 8.45467 59.3717L9.94824 31.3745C9.97992 30.7807 9.52626 30.2736 8.93495 30.2418C8.34365 30.21 7.83861 30.6655 7.80693 31.2593L6.31336 59.2566C6.28167 59.8503 6.73534 60.3575 7.32664 60.3893Z" fill="url(#paint9_linear_26_6027)"/>
<path d="M202.261 58.6339C201.714 58.8635 201.086 58.605 200.858 58.0564C200.629 57.5079 200.886 56.8771 201.433 56.6475L230.191 44.5587C230.737 44.329 231.365 44.5876 231.594 45.1361C231.822 45.6846 231.565 46.3154 231.019 46.545L202.261 58.6339Z" fill="url(#paint10_linear_26_6027)"/>
<path d="M111.687 46.9306C111.671 47.525 112.138 48.0198 112.73 48.0357L130.601 48.5164C131.193 48.5323 131.685 48.0634 131.701 47.4689C131.717 46.8745 131.25 46.3797 130.658 46.3638L112.787 45.8831C112.195 45.8672 111.703 46.3362 111.687 46.9306Z" fill="url(#paint11_linear_26_6027)"/>
<path d="M152.22 52.4937C151.686 52.2373 151.46 51.5944 151.715 51.0579C151.971 50.5214 152.611 50.2943 153.145 50.5508L175.513 61.2864C176.048 61.5428 176.274 62.1856 176.018 62.7221C175.763 63.2586 175.123 63.4857 174.589 63.2293L152.22 52.4937Z" fill="url(#paint12_linear_26_6027)"/>
<defs>
<linearGradient id="paint0_linear_26_6027" x1="-2.90045e-06" y1="105.5" x2="265" y2="34.5" gradientUnits="userSpaceOnUse">
<stop stop-color="#E87ABA"/>
<stop offset="0.139339" stop-color="#C871C7"/>
<stop offset="1" stop-color="#605DDC"/>
</linearGradient>
<linearGradient id="paint1_linear_26_6027" x1="-2.90045e-06" y1="105.5" x2="265" y2="34.5" gradientUnits="userSpaceOnUse">
<stop stop-color="#E87ABA"/>
<stop offset="0.139339" stop-color="#C871C7"/>
<stop offset="1" stop-color="#605DDC"/>
</linearGradient>
<linearGradient id="paint2_linear_26_6027" x1="-2.90045e-06" y1="105.5" x2="265" y2="34.5" gradientUnits="userSpaceOnUse">
<stop stop-color="#E87ABA"/>
<stop offset="0.139339" stop-color="#C871C7"/>
<stop offset="1" stop-color="#605DDC"/>
</linearGradient>
<linearGradient id="paint3_linear_26_6027" x1="-2.90045e-06" y1="105.5" x2="265" y2="34.5" gradientUnits="userSpaceOnUse">
<stop stop-color="#E87ABA"/>
<stop offset="0.139339" stop-color="#C871C7"/>
<stop offset="1" stop-color="#605DDC"/>
</linearGradient>
<linearGradient id="paint4_linear_26_6027" x1="-2.90045e-06" y1="105.5" x2="265" y2="34.5" gradientUnits="userSpaceOnUse">
<stop stop-color="#E87ABA"/>
<stop offset="0.139339" stop-color="#C871C7"/>
<stop offset="1" stop-color="#605DDC"/>
</linearGradient>
<linearGradient id="paint5_linear_26_6027" x1="-2.90045e-06" y1="105.5" x2="265" y2="34.5" gradientUnits="userSpaceOnUse">
<stop stop-color="#E87ABA"/>
<stop offset="0.139339" stop-color="#C871C7"/>
<stop offset="1" stop-color="#605DDC"/>
</linearGradient>
<linearGradient id="paint6_linear_26_6027" x1="-2.90045e-06" y1="105.5" x2="265" y2="34.5" gradientUnits="userSpaceOnUse">
<stop stop-color="#E87ABA"/>
<stop offset="0.139339" stop-color="#C871C7"/>
<stop offset="1" stop-color="#605DDC"/>
</linearGradient>
<linearGradient id="paint7_linear_26_6027" x1="-2.90045e-06" y1="105.5" x2="265" y2="34.5" gradientUnits="userSpaceOnUse">
<stop stop-color="#E87ABA"/>
<stop offset="0.139339" stop-color="#C871C7"/>
<stop offset="1" stop-color="#605DDC"/>
</linearGradient>
<linearGradient id="paint8_linear_26_6027" x1="-2.90045e-06" y1="105.5" x2="265" y2="34.5" gradientUnits="userSpaceOnUse">
<stop stop-color="#E87ABA"/>
<stop offset="0.139339" stop-color="#C871C7"/>
<stop offset="1" stop-color="#605DDC"/>
</linearGradient>
<linearGradient id="paint9_linear_26_6027" x1="-2.90045e-06" y1="105.5" x2="265" y2="34.5" gradientUnits="userSpaceOnUse">
<stop stop-color="#E87ABA"/>
<stop offset="0.139339" stop-color="#C871C7"/>
<stop offset="1" stop-color="#605DDC"/>
</linearGradient>
<linearGradient id="paint10_linear_26_6027" x1="-2.90045e-06" y1="105.5" x2="265" y2="34.5" gradientUnits="userSpaceOnUse">
<stop stop-color="#E87ABA"/>
<stop offset="0.139339" stop-color="#C871C7"/>
<stop offset="1" stop-color="#605DDC"/>
</linearGradient>
<linearGradient id="paint11_linear_26_6027" x1="-2.90045e-06" y1="105.5" x2="265" y2="34.5" gradientUnits="userSpaceOnUse">
<stop stop-color="#E87ABA"/>
<stop offset="0.139339" stop-color="#C871C7"/>
<stop offset="1" stop-color="#605DDC"/>
</linearGradient>
<linearGradient id="paint12_linear_26_6027" x1="-2.90045e-06" y1="105.5" x2="265" y2="34.5" gradientUnits="userSpaceOnUse">
<stop stop-color="#E87ABA"/>
<stop offset="0.139339" stop-color="#C871C7"/>
<stop offset="1" stop-color="#605DDC"/>
</linearGradient>
</defs>
</svg>
